# xmcd
#
# Track frame offsets:
# 150
# 20894
# 40820
# 55480
# 71632
# 82951
# 96675
# 114795
# 126064
# 144250
# 152529
# 169222
# 184020
# 200188
#
# Disc length: 3027 seconds
#
#
# Revision: 0
# Processed by: cddbd v1.5.1PL2 Copyright (c) Steve Scherf et al.
# Submitted via: FreeRIP 2.941 
#
DISCID=c50bd10e
DTITLE=Gangsers of Love - Old SChool Blues, Swamp, Booze and Gumbo
DYEAR=2005
DGENRE=Blues
TTITLE0=Howlin' For my Baby
TTITLE1=I Wish You Would
TTITLE2=Ya Ya
TTITLE3=Goin' Down
TTITLE4=Harmonica Cha Cha
TTITLE5=I Hear You Knockn'
TTITLE6=Shake Your Money Maker
TTITLE7=Rocket 88
TTITLE8=Broken Hearted Blues
TTITLE9=La Cucaracha
TTITLE10=Kansas City
TTITLE11=That's What They Said
TTITLE12=Checkin' Up On My Baby
TTITLE13=Congo Mombo
EXTD=As heard on\nBluesfestRadio.com
EXTT0=
EXTT1=
EXTT2=
EXTT3=
EXTT4=
EXTT5=
EXTT6=
EXTT7=
EXTT8=
EXTT9=
EXTT10=
EXTT11=
EXTT12=
EXTT13=
PLAYORDER=
